<svg id="visual" viewBox="0 0 900 600" width="900" height="600" xmlns="http://www.w3.org/2000/svg" xmlns:xlink="http://www.w3.org/1999/xlink" version="1.1"><rect x="0" y="0" width="900" height="600" fill="#ffffff"></rect><path d="M632 600L620.5 580C609 560 586 520 583.7 480C581.3 440 599.7 400 610.2 360C620.7 320 623.3 280 611 240C598.7 200 571.3 160 561.5 120C551.7 80 559.3 40 563.2 20L567 0L900 0L900 20C900 40 900 80 900 120C900 160 900 200 900 240C900 280 900 320 900 360C900 400 900 440 900 480C900 520 900 560 900 580L900 600Z" fill="#00c4ff"></path><path d="M657 600L653.5 580C650 560 643 520 645.5 480C648 440 660 400 650.8 360C641.7 320 611.3 280 609.7 240C608 200 635 160 636 120C637 80 612 40 599.5 20L587 0L900 0L900 20C900 40 900 80 900 120C900 160 900 200 900 240C900 280 900 320 900 360C900 400 900 440 900 480C900 520 900 560 900 580L900 600Z" fill="#00abe6"></path><path d="M671 600L674.2 580C677.3 560 683.7 520 681.7 480C679.7 440 669.3 400 666.8 360C664.3 320 669.7 280 671.5 240C673.3 200 671.7 160 672.8 120C674 80 678 40 680 20L682 0L900 0L900 20C900 40 900 80 900 120C900 160 900 200 900 240C900 280 900 320 900 360C900 400 900 440 900 480C900 520 900 560 900 580L900 600Z" fill="#0192cc"></path><path d="M737 600L734.8 580C732.7 560 728.3 520 728.8 480C729.3 440 734.7 400 736.5 360C738.3 320 736.7 280 729.3 240C722 200 709 160 703 120C697 80 698 40 698.5 20L699 0L900 0L900 20C900 40 900 80 900 120C900 160 900 200 900 240C900 280 900 320 900 360C900 400 900 440 900 480C900 520 900 560 900 580L900 600Z" fill="#017ab2"></path><path d="M758 600L748.5 580C739 560 720 520 721.5 480C723 440 745 400 753.2 360C761.3 320 755.7 280 746.2 240C736.7 200 723.3 160 722 120C720.7 80 731.3 40 736.7 20L742 0L900 0L900 20C900 40 900 80 900 120C900 160 900 200 900 240C900 280 900 320 900 360C900 400 900 440 900 480C900 520 900 560 900 580L900 600Z" fill="#006398"></path><path d="M752 600L756.8 580C761.7 560 771.3 520 773.8 480C776.3 440 771.7 400 774 360C776.3 320 785.7 280 784 240C782.3 200 769.7 160 765.8 120C762 80 767 40 769.5 20L772 0L900 0L900 20C900 40 900 80 900 120C900 160 900 200 900 240C900 280 900 320 900 360C900 400 900 440 900 480C900 520 900 560 900 580L900 600Z" fill="#004b7e"></path><path d="M774 600L780.8 580C787.7 560 801.3 520 807.5 480C813.7 440 812.3 400 808.3 360C804.3 320 797.7 280 792.5 240C787.3 200 783.7 160 787.5 120C791.3 80 802.7 40 808.3 20L814 0L900 0L900 20C900 40 900 80 900 120C900 160 900 200 900 240C900 280 900 320 900 360C900 400 900 440 900 480C900 520 900 560 900 580L900 600Z" fill="#003565"></path><path d="M802 600L809.3 580C816.7 560 831.3 520 837.5 480C843.7 440 841.3 400 834.3 360C827.3 320 815.7 280 815.8 240C816 200 828 160 832.7 120C837.3 80 834.7 40 833.3 20L832 0L900 0L900 20C900 40 900 80 900 120C900 160 900 200 900 240C900 280 900 320 900 360C900 400 900 440 900 480C900 520 900 560 900 580L900 600Z" fill="#00204c"></path><path d="M846 600L849.2 580C852.3 560 858.7 520 861.3 480C864 440 863 400 860.2 360C857.3 320 852.7 280 854 240C855.3 200 862.7 160 865.8 120C869 80 868 40 867.5 20L867 0L900 0L900 20C900 40 900 80 900 120C900 160 900 200 900 240C900 280 900 320 900 360C900 400 900 440 900 480C900 520 900 560 900 580L900 600Z" fill="#000000"></path></svg>